<svg width="82" height="66" viewBox="0 0 82 66" fill="none" xmlns="http://www.w3.org/2000/svg">
<path d="M59.8728 26.584L38.2128 5.70738C34.9424 2.55528 29.736 2.65117 26.5839 5.92156L5.70726 27.5816C2.55515 30.852 2.65104 36.0584 5.92142 39.2105L27.5814 60.0871C30.8518 63.2392 36.0583 63.1434 39.2104 59.873L60.087 38.2129C63.2391 34.9426 63.1432 29.7361 59.8728 26.584Z" fill="#531DAB"/>
<path d="M75.7354 26.584L54.0754 5.70739C50.805 2.55528 45.5985 2.65117 42.4464 5.92156L21.5698 27.5816C18.4177 30.852 18.5136 36.0584 21.784 39.2105L43.444 60.0871C46.7144 63.2392 51.9208 63.1434 55.0729 59.873L75.9496 38.2129C79.1017 34.9426 79.0058 29.7361 75.7354 26.584Z" fill="#9254DE"/>
</svg>
