<svg width="220" height="66" viewBox="0 0 220 66" fill="none" xmlns="http://www.w3.org/2000/svg">
<g clip-path="url(#clip0_446_1458)">
<path d="M59.8728 26.584L38.2128 5.70738C34.9424 2.55528 29.736 2.65117 26.5839 5.92156L5.70726 27.5816C2.55515 30.852 2.65104 36.0584 5.92142 39.2105L27.5814 60.0871C30.8518 63.2392 36.0583 63.1434 39.2104 59.873L60.087 38.2129C63.2391 34.9426 63.1432 29.7361 59.8728 26.584Z" fill="#531DAB"/>
<path d="M75.7354 26.584L54.0754 5.70739C50.805 2.55528 45.5985 2.65117 42.4464 5.92156L21.5698 27.5816C18.4177 30.852 18.5136 36.0584 21.784 39.2105L43.444 60.0871C46.7144 63.2392 51.9208 63.1434 55.0729 59.873L75.9496 38.2129C79.1017 34.9426 79.0058 29.7361 75.7354 26.584Z" fill="#9254DE"/>
<path d="M115.088 60.5637C111.651 60.5637 108.63 60.0168 106.025 58.923C103.421 57.7771 101.337 56.2145 99.7746 54.2351C98.212 52.2557 97.2744 49.964 96.9619 47.3596H107.041C107.353 48.8702 108.187 50.1723 109.541 51.2662C110.947 52.308 112.744 52.8288 114.932 52.8288C117.12 52.8288 118.708 52.3861 119.698 51.5006C120.74 50.615 121.261 49.5993 121.261 48.4534C121.261 46.7866 120.532 45.6668 119.073 45.0938C117.615 44.4688 115.583 43.8698 112.979 43.2968C111.312 42.9323 109.619 42.4894 107.9 41.9686C106.181 41.4478 104.593 40.7966 103.134 40.0153C101.728 39.182 100.582 38.1402 99.6965 36.8901C98.8112 35.588 98.3683 33.9992 98.3683 32.1241C98.3683 28.6863 99.7226 25.7955 102.431 23.4516C105.192 21.1076 109.046 19.9357 113.994 19.9357C118.578 19.9357 122.224 21.0034 124.933 23.1391C127.693 25.2747 129.334 28.2176 129.855 31.9678H120.401C119.828 29.1031 117.667 27.6706 113.916 27.6706C112.041 27.6706 110.583 28.0352 109.541 28.7645C108.551 29.4938 108.056 30.4052 108.056 31.4991C108.056 32.6449 108.812 33.5566 110.322 34.2336C111.833 34.9107 113.838 35.5357 116.338 36.1088C119.047 36.7338 121.521 37.437 123.761 38.2183C126.053 38.9476 127.876 40.0673 129.23 41.5779C130.584 43.0363 131.261 45.1458 131.261 47.9065C131.314 50.3025 130.689 52.4642 129.386 54.3914C128.084 56.3186 126.209 57.8292 123.761 58.923C121.313 60.0168 118.422 60.5637 115.088 60.5637ZM140.121 59.6262V3.37195H150.122V59.6262H140.121ZM165.731 14.8572C163.908 14.8572 162.398 14.3103 161.2 13.2164C160.054 12.1226 159.481 10.7423 159.481 9.0755C159.481 7.4087 160.054 6.05445 161.2 5.0127C162.398 3.91886 163.908 3.37195 165.731 3.37195C167.554 3.37195 169.039 3.91886 170.185 5.0127C171.383 6.05445 171.982 7.4087 171.982 9.0755C171.982 10.7423 171.383 12.1226 170.185 13.2164C169.039 14.3103 167.554 14.8572 165.731 14.8572ZM160.731 59.6262V20.8733H170.732V59.6262H160.731ZM191.639 59.6262L177.42 20.8733H187.889L197.734 50.1723L207.579 20.8733H218.049L203.75 59.6262H191.639Z" fill="#141414"/>
</g>
<defs>
<clipPath id="clip0_446_1458">
<rect width="220" height="65.7944" fill="white"/>
</clipPath>
</defs>
</svg>
