<svg width="220" height="66" viewBox="0 0 220 66" fill="none" xmlns="http://www.w3.org/2000/svg">
<g clip-path="url(#clip0_421_3775)">
<path d="M59.8728 26.6868L38.2128 5.81017C34.9424 2.65807 29.736 2.75395 26.5839 6.02434L5.70726 27.6844C2.55515 30.9547 2.65104 36.1612 5.92142 39.3133L27.5814 60.1899C30.8518 63.342 36.0583 63.2461 39.2104 59.9757L60.087 38.3157C63.2391 35.0453 63.1432 29.8389 59.8728 26.6868Z" fill="#531DAB"/>
<path d="M75.7354 26.6868L54.0754 5.81017C50.805 2.65807 45.5985 2.75395 42.4464 6.02434L21.5698 27.6844C18.4177 30.9547 18.5136 36.1612 21.784 39.3133L43.444 60.1899C46.7144 63.342 51.9208 63.2461 55.0729 59.9757L75.9496 38.3157C79.1017 35.0453 79.0058 29.8389 75.7354 26.6868Z" fill="#9254DE"/>
<path d="M115.088 60.6665C111.651 60.6665 108.63 60.1196 106.025 59.0258C103.421 57.8799 101.337 56.3173 99.7746 54.3379C98.212 52.3585 97.2744 50.0668 96.9619 47.4624H107.041C107.353 48.973 108.187 50.2751 109.541 51.3689C110.947 52.4108 112.744 52.9316 114.932 52.9316C117.12 52.9316 118.708 52.4889 119.698 51.6033C120.74 50.7178 121.261 49.7021 121.261 48.5562C121.261 46.8894 120.532 45.7696 119.073 45.1966C117.615 44.5716 115.583 43.9726 112.979 43.3996C111.312 43.0351 109.619 42.5922 107.9 42.0714C106.181 41.5506 104.593 40.8994 103.134 40.1181C101.728 39.2848 100.582 38.243 99.6965 36.9929C98.8112 35.6908 98.3683 34.102 98.3683 32.2269C98.3683 28.7891 99.7226 25.8983 102.431 23.5544C105.192 21.2104 109.046 20.0385 113.994 20.0385C118.578 20.0385 122.224 21.1062 124.933 23.2418C127.693 25.3775 129.334 28.3203 129.855 32.0706H120.401C119.828 29.2059 117.667 27.7734 113.916 27.7734C112.041 27.7734 110.583 28.138 109.541 28.8673C108.551 29.5965 108.056 30.508 108.056 31.6018C108.056 32.7477 108.812 33.6593 110.322 34.3364C111.833 35.0135 113.838 35.6385 116.338 36.2116C119.047 36.8366 121.521 37.5398 123.761 38.3211C126.053 39.0504 127.876 40.1701 129.23 41.6807C130.584 43.1391 131.261 45.2486 131.261 48.0093C131.314 50.4053 130.689 52.567 129.386 54.4942C128.084 56.4213 126.209 57.9319 123.761 59.0258C121.313 60.1196 118.422 60.6665 115.088 60.6665ZM140.121 59.7289V3.47473H150.122V59.7289H140.121ZM165.731 14.96C163.908 14.96 162.398 14.413 161.2 13.3192C160.054 12.2254 159.481 10.8451 159.481 9.17828C159.481 7.51149 160.054 6.15723 161.2 5.11548C162.398 4.02165 163.908 3.47473 165.731 3.47473C167.554 3.47473 169.039 4.02165 170.185 5.11548C171.383 6.15723 171.982 7.51149 171.982 9.17828C171.982 10.8451 171.383 12.2254 170.185 13.3192C169.039 14.413 167.554 14.96 165.731 14.96ZM160.731 59.7289V20.976H170.732V59.7289H160.731ZM191.639 59.7289L177.42 20.976H187.889L197.734 50.2751L207.579 20.976H218.049L203.75 59.7289H191.639Z" fill="white"/>
</g>
<defs>
<clipPath id="clip0_421_3775">
<rect width="220" height="65.7944" fill="white" transform="translate(0 0.102783)"/>
</clipPath>
</defs>
</svg>
